# xmcd CD database file
#
# Track frame offsets:
#	150
#	34199
#	64482
#	93685
#	123881
#	155384
#	194574
#	231173
#	266295
#	297569
#
# Disc length: 4354 seconds
#
# Revision: 0
# Processed by: cddbd v1.4PL0 Copyright (c) Steve Scherf et al.
# Submitted via: CDex 1.50
#
DISCID=9411000a
DTITLE=Pacific Heights - Frozen Fears
DYEAR=2003
DGENRE=New Age
TTITLE0=the sorcerer
TTITLE1=polarized
TTITLE2=salvation
TTITLE3=ghost dream
TTITLE4=soul voyage
TTITLE5=sailing spirit
TTITLE6=nekana
TTITLE7=hidden half
TTITLE8=eye the sky
TTITLE9=coloured rain
EXTD=YEAR: 2003
EXTT0=
EXTT1=
EXTT2=
EXTT3=
EXTT4=
EXTT5=
EXTT6=
EXTT7=
EXTT8=
EXTT9=
PLAYORDER=
